<?xml version="1.0" standalone="no"?>
<!DOCTYPE svg PUBLIC "-//W3C//DTD SVG 20010904//EN"
 "http://www.w3.org/TR/2001/REC-SVG-20010904/DTD/svg10.dtd">
<svg version="1.0" xmlns="http://www.w3.org/2000/svg"
 width="3508.000000pt" height="2480.000000pt" viewBox="0 0 3508.000000 2480.000000"
 preserveAspectRatio="xMidYMid meet">

<g transform="translate(0.000000,2480.000000) scale(0.100000,-0.100000)"
fill="#000000" stroke="none">
<path d="M830 17675 l0 -1645 9133 -2 9132 -3 95 -26 c188 -52 345 -144 471
-276 93 -97 127 -147 184 -265 73 -151 89 -225 89 -418 1 -142 -2 -177 -22
-250 -93 -341 -345 -600 -688 -707 l-89 -28 -1695 -6 c-1717 -6 -1743 -7
-2005 -45 -1669 -242 -3061 -1601 -3345 -3266 -51 -304 -50 -226 -50 -2833 l0
-2425 1640 0 1639 0 4 2203 c4 2431 -2 2240 67 2428 92 254 324 487 575 578
177 64 101 61 1577 61 1407 1 1673 6 1928 39 1718 224 3194 1534 3630 3225 84
327 119 577 127 921 8 357 -15 619 -87 954 -128 606 -411 1213 -800 1716 -177
229 -463 528 -667 697 -736 611 -1574 950 -2488 1008 -106 6 -3255 10 -9257
10 l-9098 0 0 -1645z"/>
<path d="M30640 19304 c-321 -37 -504 -71 -698 -130 -544 -165 -982 -445
-1312 -839 -60 -72 -9340 -12840 -9340 -12851 0 -2 915 -4 2033 -3 l2032 0
3635 5007 c1999 2754 3653 5026 3675 5049 44 45 90 60 151 49 47 -9 111 -68
124 -114 7 -25 10 -1680 10 -5014 l0 -4978 1645 0 1645 0 -3 5423 c-3 5034 -4
5431 -20 5552 -90 691 -300 1211 -678 1680 -108 134 -330 356 -459 458 -463
369 -1014 598 -1666 693 -104 15 -683 28 -774 18z"/>
<path d="M4790 9765 l0 -4285 1645 0 1645 0 -2 4283 -3 4282 -1642 3 -1643 2
0 -4285z"/>
</g>
</svg>
